<?xml version="1.0" encoding="iso-8859-1"?>
<!-- Generator: Adobe Illustrator 19.0.0, SVG Export Plug-In . SVG Version: 6.00 Build 0)  -->
<svg version="1.1" id="Capa_1" xmlns="http://www.w3.org/2000/svg" xmlns:xlink="http://www.w3.org/1999/xlink" x="0px" y="0px"
	 viewBox="0 0 511.993 511.993" style="enable-background:new 0 0 511.993 511.993;" xml:space="preserve">
<path style="fill:#1138F7;" d="M279.252,456.052v36.2c0,10.892-8.824,19.716-19.716,19.716l0,0
	c-11.054,0.549-20.459-7.983-20.976-19.037c0-0.226-0.032-0.452-0.032-0.679v-35.553c-44.894-1.454-87.817-18.746-121.204-48.805
	c-4.59-4.654-7.143-10.925-7.111-17.453c-0.194-14.932,11.28-27.408,26.18-28.443c5.882,0.129,11.571,2.166,16.161,5.818
	c24.37,20.492,54.106,33.582,85.651,37.816V276.346C178.41,260.186,116.03,239.823,116.03,166.454
	c0-59.794,49.451-104.721,122.174-109.892V19.716C238.366,8.888,247.092,0.162,257.92,0c10.892,0,19.716,8.824,19.716,19.716l0,0
	v38.462c37.266,2.133,72.82,16.451,101.165,40.725c4.59,4.654,7.143,10.925,7.111,17.453c-0.162,15.223-12.573,27.473-27.796,27.473
	c-4.751-0.065-9.341-1.519-13.252-4.202c-19.619-14.997-42.567-24.984-66.905-29.089v113.447
	c59.794,16.161,123.79,39.432,123.79,115.71C403.042,396.581,367.489,450.234,279.252,456.052z M238.527,107.953
	c-37.816,2.909-62.703,24.564-62.703,54.623s27.473,40.725,62.703,51.067V107.953z M279.252,288.628v117.649
	c47.835-5.818,64.642-34.907,64.642-59.471C344.217,312.869,315.775,298.971,279.252,288.628z"/>
<g>
</g>
<g>
</g>
<g>
</g>
<g>
</g>
<g>
</g>
<g>
</g>
<g>
</g>
<g>
</g>
<g>
</g>
<g>
</g>
<g>
</g>
<g>
</g>
<g>
</g>
<g>
</g>
<g>
</g>
</svg>
