<svg id="Icons" height="512" viewBox="0 0 74 74" width="512" xmlns="http://www.w3.org/2000/svg"><path d="m37 72a35 35 0 1 1 35-35 35.04 35.04 0 0 1 -35 35zm0-68a33 33 0 1 0 33 33 33.037 33.037 0 0 0 -33-33z"/><path d="m37 63a26 26 0 1 1 26-26 26.029 26.029 0 0 1 -26 26zm0-50a24 24 0 1 0 24 24 24.027 24.027 0 0 0 -24-24z"/><path d="m37 38a7 7 0 1 1 7-7 1 1 0 0 1 -2 0 5 5 0 1 0 -5 5 1 1 0 0 1 0 2z"/><path d="m37 50a7.008 7.008 0 0 1 -7-7 1 1 0 0 1 2 0 5 5 0 1 0 5-5 1 1 0 0 1 0-2 7 7 0 0 1 0 14z"/><path d="m37 52.583a1 1 0 0 1 -1-1v-29.166a1 1 0 0 1 2 0v29.166a1 1 0 0 1 -1 1z"/><path d="m37 13a1 1 0 0 1 -1-1v-9a1 1 0 0 1 2 0v9a1 1 0 0 1 -1 1z"/><path d="m37 72a1 1 0 0 1 -1-1v-9a1 1 0 0 1 2 0v9a1 1 0 0 1 -1 1z"/><path d="m54.678 20.322a1 1 0 0 1 -.707-1.707l6.364-6.364a1 1 0 0 1 1.414 1.414l-6.364 6.364a1 1 0 0 1 -.707.293z"/><path d="m12.958 62.042a1 1 0 0 1 -.707-1.707l6.364-6.364a1 1 0 0 1 1.414 1.414l-6.364 6.364a1 1 0 0 1 -.707.293z"/><path d="m71 38h-9a1 1 0 0 1 0-2h9a1 1 0 0 1 0 2z"/><path d="m12 38h-9a1 1 0 0 1 0-2h9a1 1 0 0 1 0 2z"/><path d="m61.042 62.042a1 1 0 0 1 -.707-.293l-6.364-6.364a1 1 0 0 1 1.414-1.414l6.364 6.364a1 1 0 0 1 -.707 1.707z"/><path d="m19.322 20.322a1 1 0 0 1 -.707-.293l-6.364-6.364a1 1 0 0 1 1.414-1.414l6.364 6.364a1 1 0 0 1 -.707 1.707z"/></svg>